<?xml version="1.0" encoding="UTF-8"?>
<svg xmlns="http://www.w3.org/2000/svg" version="1.1" viewBox="0 0 137.5 27.7">
  <defs>
    <style>
      .cls-1 {
        fill: #010101;
      }

      .cls-2 {
        fill: #fff;
      }

      .cls-3 {
        fill: #ee702d;
      }

      .cls-4 {
        isolation: isolate;
      }
    </style>
  </defs>
  <!-- Generator: Adobe Illustrator 28.7.1, SVG Export Plug-In . SVG Version: 1.2.0 Build 142)  -->
  <g>
    <g id="Ebene_1">
      <g id="Ebene_1-2" data-name="Ebene_1">
        <g>
          <path class="cls-3" d="M24.7,15c0,1.5-.3,2.9-.9,4.2,0,.2-.2.3-.2.5-1.2,2.2-3.1,3.9-5.4,4.7h0c-.4.1-.8.3-1.2.3-.7.2-1.4.2-2.2.2-3.2,0-6.1-1.5-7.9-3.9-.2-.3-.5-.7-.7-1-.9-1.5-1.4-3.2-1.4-5.1s0-.9,0-1.3,0-.7.2-1h0c.2-.9.6-1.8,1-2.6,0-.2.2-.3.3-.5.6-.9,1.3-1.7,2.2-2.4.1,0,.3-.2.4-.3,1.5-1.1,3.2-1.7,5.2-1.9h1.2c2.6,0,5,1.3,6.7,3.1h0c.8.8,1.5,1.8,1.9,2.9h0c.5,1.2.8,2.6.8,4h0Z"/>
          <g>
            <path class="cls-1" d="M23.7,16h0Z"/>
            <path class="cls-1" d="M23.7,16h0Z"/>
            <path class="cls-1" d="M23.7,16.2h0Z"/>
            <path class="cls-1" d="M20.5,7.4h0ZM20,7l.2.2h-.1v-.2ZM19.1,6.5h.2s.1,0,.2,0h-.4ZM22.1,17.5l.2.2h0v.2h0s0-.1-.1-.2c0,0,0-.1-.1-.2,0-.1-.1-.2-.2-.2h0c0-.1.2.2.2.2ZM8.2,9h-.2.2ZM13.1,4.8h.2-.5.3ZM12.8,4.9h0s-.2,0-.2,0c0,0,.2,0,.2,0ZM11.9,5.7h.2c0,0,.1,0,.2-.2h.4q0,0,.1,0h.1s.1,0,.2,0h.2q0,0-.2,0h-.6,2.4c.2,0,.5,0,.7.2.2,0,.5,0,.7.2h.4c.2,0,.5.2.7.3.2,0,.4.2.6.3h-2.5c-.2,0-.5,0-.7,0h-.6c-.2,0-.5,0-.7.2-.2,0-.4,0-.6.2-.2,0-.4,0-.6.2-.4,0-.8.2-1.2.3h-1.9c.2-.2.4-.3.6-.5.2-.2.6-.4.9-.6h.1s.2,0,.2,0h0s.1,0,.1,0c0,0-.2,0-.3,0h-.1c0,0,.1,0,.2,0h.1l.9-.3ZM11.7,5h0c-.1,0-.2,0-.3.2h-.2c-.4.3-.8.6-1.2.9h-.1c0,0-.1.2-.1.2h-.1c0,0-.1.2-.1.2h-.1q0,.2-.1.2h-.1q0,.2-.1.2h0s-.1,0-.2,0h-.1q0,0-.1-.2h0c1-.8,2.3-1.3,3.5-1.6h-.6ZM8.2,6.7s.1,0,.2.2c0,0-.1,0-.2-.2h0ZM7.6,7.1h0l.2.2c0,0,.3.2.4.3-.1.2-.3.3-.4.5h0q0,.1,0,.2s0,.2-.2.3c0,0,0,.2-.2.2h-1.1c.5-.7,1-1.3,1.6-1.8h-.1ZM6,8.9h1.1-1.2.1ZM5.9,9h0ZM5.9,9.1h.5-.5.7-.8s0-.1,0-.2v.2ZM5.7,9.4h0ZM5,10.8l.6-1.2h1.1c-.2.3-.4.6-.5,1,0,.1,0,.3-.2.4h-.2.2-.5c-.2,0-.3,0-.5.2h-.2c0-.2,0-.4.2-.6v.2ZM4.7,11.4s.2,0,.3-.1c0,0,.3,0,.4-.1h.4c0,0-.2.1-.4.1s-.3,0-.4.1c0,0-.2,0-.4.2h0v-.2ZM4.7,11.6h0c0-.1,0,0,0,0ZM4.6,11.9h.2s.2,0,.3-.1c-.2,0-.3.2-.5.3h0v-.2ZM5.6,19.2h0v-.3h0v.2h0ZM5.6,12h0v.6h0v.6h0v.6h0v.6h0v.6h0v.6h0v2.7c0-.2,0-.3-.2-.5-.3-.8-.4-1.7-.4-2.5v-1.2c0-.4,0-.8.2-1.2,0,0,0,0,.2-.1.2-.1.4-.2.6-.3,0,0,.3,0,.4-.1h0v.3l-.7-.7ZM14,23.9h-.6c-.4,0-.8,0-1.3-.2-.4,0-.8-.2-1.2-.3-.4-.1-.8-.3-1.2-.5s-.8-.4-1.1-.6h-.1c0-.1-.1-.2-.1-.2h-.1c0-.1-.1-.1-.1-.1v-.2h0v-.2q-.1,0-.2-.1h0c0-.1,0-.1,0-.1v-.2h0v-.2q0,0-.2-.1h0c0-.3-.6-.9-.7-1h0v-.3c0-.2,0,0,0,0,0-.6-.2-1.2-.3-1.8h0v-.6h0v-.6h0v-.2h0v-.6h0v-.3h0c0-.4,0-.7.2-1,0-.6.3-1.2.5-1.8v-.2h0s.2,0,.3.1c.2,0,.3.2.5.3s.3.3.4.5c.1.2.2.4.3.6.1.2.2.4.3.6v.8h.1v.4c0,.1,0,.2.1.3,0,.1,0,.2.1.3,0,.1,0,.2.1.3.1.5.3.9.4,1.4,0,.2.1.5.2.7,0,.2.2.5.2.7.2.5.3.9.6,1.4.1.2.2.4.3.7h0v.4c0,.1.1.2.2.3,0,0,0,.1.1.2,0,0,0,.1.1.1,0,0,.2.2.2.3.2.2.3.4.5.6,0,0,.2.2.3.3h.1v.2h0s.2.2.3.2h.1v.2h0c.2.2.4.3.6.5h.2c-.1.1-.2.1-.4.1l.4-1.1ZM15.1,23.8h-.1s.1,0,.2.1h.2-.3ZM21.5,20.1h0c-.6.8-1.2,1.4-1.9,1.9-.7.5-1.5.9-2.3,1.2h0c-.5.2-1,.3-1.5.4-.2,0,0,0,0,0h-.2s-.1,0-.2-.1c-.1,0-.3-.1-.4-.2-.3-.2-.5-.3-.8-.5-.5-.4-1-.8-1.4-1.3h0v-.2s-.1-.1-.2-.2c0,0,0-.1-.1-.2,0,0,0-.1-.1-.2-.2-.3-.3-.5-.5-.8-.3-.6-.5-1.2-.8-1.7-.2-.5-.3-1-.5-1.6s-.3-1.1-.5-1.7c0-.3-.2-.6-.3-.8,0-.1-.1-.3-.2-.4,0-.1-.1-.3-.2-.4-.1-.3-.3-.5-.5-.8-.2-.2-.4-.5-.6-.7h-.3c0-.2.2-.4.3-.5.2-.3.3-.6.5-.8h1c.2,0,.5.1.7.2.5.1.9.3,1.4.4.1,0,.2,0,.4.1h.4c0,.1.1.1.2.1s.2,0,.3.1c.5.2.9.4,1.4.6.9.4,1.8.9,2.6,1.4s1.6,1.1,2.4,1.8h.1c0,.1.1.1.1.1v.2h0v.2q.1,0,.2.1h.1c0,.1.2.3.3.4.4.3.7.7,1,1.1.5.6,1,1.2,1.4,1.9h0c0,.1-.1.3-.2.4,0,0-.1.2-.2.3,0,0-.1.2-.2.3,0,0-.1.2-.2.3h0l-.5-.4ZM22.8,18.6h0ZM22.7,19.3s0,.1-.1.2h0v.2h0v.2c-.2.3-.4.6-.6.8h0c.2-.3.4-.5.6-.8h0v-.2h0v-.2s0-.2.1-.2v-.2h.1v-.3h.1v-.2h0v-.2c.1-.3.2-.6.3-.9h0v-.5h0c0-.1,0,.1,0,.1h0v.2h0v.9h0v.2h0v.2h0v-.2c0-.2.2-.5.2-.8v-.2.2c0,.3-.2.5-.3.8v.4h0v-.2h0c0-.1,0-.2.1-.3v-.4c.1-.4.2-.8.2-1v-.2h0v-.4h0v.3h0v.3c0-.4.1-.8.1-1.1h0v-.2h0v-.6h0v.9h0v1h0v.2h0v.8h0v.4h0v.2c-.8-1.1-1.7-2.1-2.7-3.1-.3-.2-.5-.5-.8-.7s-.6-.5-.9-.7c-.6-.4-1.2-.8-1.8-1.2-.5-.3-1-.6-1.6-.9-.6-.3-1.1-.6-1.7-.8-.3-.1-.6-.2-.9-.4h-.8c-.6-.2-1.2-.4-1.7-.5-.3,0-.8-.2-1.2-.3h-.5c.3-.4.6-.7.9-1h2.8c.6-.1,1.3-.3,1.9-.5h.8c.3-.1.6-.2.9-.2s.6,0,.9-.1h1.8c.3,0,.6.1.9.2.6.2,1.1.4,1.6.7h.1c0,.1.1.3.1.3.3.4.6.8.9,1.2s.5.9.7,1.3h0c.2.5.4,1.1.5,1.6,0,.3.1.6.2.8v.8h0v.4h0c0,.1,0,0,0,0,0-.7,0-1.4-.2-2-.1-.6-.3-1.2-.5-1.7h0v-.2h0v-.2h0c-.2-.4-.4-.7-.6-1-.2-.2,0-.1,0,0h.1q0,.1,0,0c0-.1-.2-.3-.3-.4,0,0-.1-.1-.2-.2h-.1v-.2h0q0-.1-.1-.2h0s-.1-.1-.2-.2h-.1c-.2-.3-.5-.5-.9-.7-.3-.2-.6-.3-.9-.5-.1,0-.3,0-.4-.2-.1,0-.2,0-.3,0h-.4c.1,0,.3,0,.4,0h.4c.2,0,.4.2.6.3s.4.2.6.4c.2.1.4.3.6.4-.2-.2,0,0,.3.2,0,0,.1.1.2.2h.1c.1.1.2.2.2.2v-.3h-.3c-.2-.1-.4-.3-.6-.4-.3-.2-.2-.2-.2-.1h.2c-.3-.2-.7-.4-1.1-.5h-.7c-.4-.1-.8-.2-1.2-.3h-3.8c-.4,0-.8.2-1.2.3s-.8.3-1.2.4c0,0-.2,0-.3.1h-.1s0,.1-.1.1h-.3c0,.1-.3.3-.3.3h-.2c0,.1-.2.2-.3.2h-.1v.2c-.1,0-.7.4-.7.4l-.5.4h-.1c-.1.2-.3.4-.4.5h0c0,.1-.1.1-.1.1,0,.2-.1.3-.2.3,0,0-.1.2-.2.2h0v.2c-.1.2-.2.3-.3.5-.2.3-.4.7-.6,1.1,0,.2-.2.4-.3.5,0,.2-.2.4-.2.6,0,.4-.2.8-.3,1.2h0c0,.5-.2.9-.2,1.4v1.3c0,.4,0,.7,0,1.1v.6h0v.2h0v.3c0,.4.2.7.4,1.1,0,.4.3.7.5,1.1,1.2,2.2,2.3,3,3.2,3.6.7.5,1.4.9,2.2,1.2.8.3,1.5.5,2.3.6h2.4c1-.1,1.9-.4,2.2-.5.1,0,.2,0,.3-.1h0c.2,0,.4-.2.7-.3.2,0,.5-.2.7-.3.2-.1.5-.3.7-.4h0c0-.1.1-.1.2-.2,0,0,.1,0,.2-.1.2-.2.4-.3.6-.5s.4-.3.5-.5c.3-.3.5-.6.7-.8-.4.5-.8.9-1.2,1.3.7-.6,1.2-1.3,1.7-2,.2-.2.3-.5.5-.7v-.2c.2,0,.2-.1.2-.2h0c.2-.5.3-.8.4-1.1h0s0-.2.1-.5c0,.3-.2.6-.3.9h0v.2h0v.2h0v.2c-.1,0-.2.2-.2.2h0v.2l-2.7-3.4Z"/>
          </g>
        </g>
        <g class="cls-4">
          <g class="cls-4">
            <path class="cls-2" d="M28.1,8.5h5.2c2.8,0,4.2.9,4.2,2.8s0,1.3-.2,1.6c-.2.4-.5.7-.9,1.1.6.2.9.5,1.1.9.2.3.3.9.3,1.7,0,2.2-1.5,3.2-4.4,3.2h-5.2v-11.4ZM32.9,11.1h-.9v1.8h.9c.3,0,.6,0,.7-.2.1-.1.2-.4.2-.7s0-.6-.2-.7c-.1-.1-.4-.2-.7-.2ZM33,15.4h-.9v1.9h.9c.4,0,.7,0,.8-.2.1-.1.2-.4.2-.7s0-.6-.2-.7-.4-.2-.8-.2Z"/>
            <path class="cls-2" d="M46.7,14.1v3.2c.1,0,.2.1.4.2v2.4c-.9.1-1.5.2-1.9.2s-.6,0-.9-.1c-.3,0-.5-.2-.5-.3v-.2c-.8.4-1.7.6-2.7.6s-1.8-.2-2.3-.7c-.5-.5-.8-1.2-.8-2.2s.3-1.7.9-2c.6-.3,1.5-.5,2.7-.6h1.2v-.2c0-.2-.2-.3-.7-.3-1,0-2.1,0-3.1.2h-.6c0,0,0-2.5,0-2.5,1.5-.4,2.9-.6,4.1-.6s2.3.2,3,.6c.8.4,1.2,1.2,1.2,2.4ZM42.3,17.5c.2,0,.4,0,.6-.3v-.6h-.6c-.3,0-.4.2-.4.5s.1.4.4.4Z"/>
            <path class="cls-2" d="M47.9,19.9v-11.7h3.8v11.7h-3.8Z"/>
            <path class="cls-2" d="M52.6,19.9v-11.7h3.8v11.7h-3.8Z"/>
            <path class="cls-2" d="M57.4,10.8v-2.6h3.8v2.6h-3.8ZM57.4,19.9v-8.6h3.8v8.6h-3.8Z"/>
            <path class="cls-2" d="M66,19.9h-3.8v-8.6h3.8v.4c.7-.4,1.3-.7,1.9-.7,1.2,0,2.1.3,2.6,1,.5.7.7,1.8.7,3.5v4.3h-3.8v-4c0-1-.2-1.5-.6-1.5h-.7v5.5Z"/>
            <path class="cls-2" d="M75.9,8.5l-.4,4.8h-3.9l1.3-4.8h3Z"/>
            <path class="cls-2" d="M88.7,19.7c-1.2.3-2.4.4-3.7.4s-2.2-.2-2.9-.5c-.7-.4-1.2-1-1.5-1.8-.3-.8-.5-2-.5-3.6,0-2.3.3-3.8,1-4.6s2-1.2,4-1.2,1.8.1,2.9.3h.6c0,.1-.1,3.2-.1,3.2-.9-.1-1.8-.2-2.6-.2s-1.3.2-1.5.5c-.2.3-.3.9-.3,1.9s0,1.6.2,2c.1.4.3.6.5.7.2.1.6.2,1.2.2h2.7c0-.1,0,2.9,0,2.9Z"/>
            <path class="cls-2" d="M93,16.7c0,.4.3.6.8.6,1.1,0,2.3,0,3.4-.1h.7c0,0,0,2.4,0,2.4-1.5.3-3,.5-4.5.5s-2.6-.3-3.2-1-1-1.8-1-3.3.4-2.7,1.1-3.5c.7-.8,1.8-1.2,3.3-1.2s2.6.3,3.4,1c.7.6,1.1,1.6,1.1,3l-.2,1.7h-4.9ZM94.3,14.6c0-.3,0-.6-.1-.7,0-.1-.3-.2-.5-.2s-.4,0-.5.2c0,.1-.1.4-.2.7h1.3Z"/>
            <path class="cls-2" d="M102.6,19.9h-3.8v-8.6h3.8v.4c.7-.4,1.3-.7,1.9-.7,1.2,0,2.1.3,2.6,1,.5.7.7,1.8.7,3.5v4.3h-3.8v-4c0-1-.2-1.5-.6-1.5h-.7v5.5Z"/>
            <path class="cls-2" d="M112.8,14.4v1.8c0,.3,0,.5.1.6,0,0,.2.1.5.1h.8s0,2.9,0,2.9c-1,.2-1.7.3-2.2.3-1.1,0-1.8-.2-2.3-.7s-.7-1.2-.7-2.4v-2.7h-.7v-3.1h.7v-1.7h3.8v1.7h1.4v3.1h-1.4Z"/>
            <path class="cls-2" d="M118.7,19.9h-3.8v-8.6h3.8v.8c.7-.7,1.3-1,1.8-1v3.5c-.4,0-.9.2-1.5.5l-.3.2v4.7Z"/>
            <path class="cls-2" d="M129.5,14.1v3.2c.1,0,.2.1.4.2v2.4c-.9.1-1.5.2-1.9.2s-.6,0-.9-.1c-.3,0-.5-.2-.5-.3v-.2c-.8.4-1.7.6-2.7.6s-1.8-.2-2.3-.7c-.5-.5-.8-1.2-.8-2.2s.3-1.7.9-2c.6-.3,1.5-.5,2.7-.6h1.2v-.2c0-.2-.2-.3-.7-.3-1,0-2.1,0-3.1.2h-.6c0,0,0-2.5,0-2.5,1.5-.4,2.9-.6,4.1-.6s2.3.2,3,.6c.8.4,1.2,1.2,1.2,2.4ZM125.1,17.5c.2,0,.4,0,.6-.3v-.6h-.6c-.3,0-.4.2-.4.5s.1.4.4.4Z"/>
            <path class="cls-2" d="M130.7,19.9v-11.7h3.8v11.7h-3.8Z"/>
          </g>
        </g>
      </g>
    </g>
  </g>
</svg>