<?xml version="1.0" encoding="UTF-8"?>
<svg xmlns="http://www.w3.org/2000/svg" version="1.1" viewBox="0 0 137.5 27.7">
  <defs>
    <style>
      .cls-1 {
        fill: #ee702d;
      }

      .cls-2 {
        fill: #fff;
        font-family: TitilliumWeb-Black, 'Titillium Web';
        font-size: 17px;
        font-weight: 800;
      }

      .cls-3 {
        fill: #010101;
      }
    </style>
  </defs>
  <!-- Generator: Adobe Illustrator 28.7.1, SVG Export Plug-In . SVG Version: 1.2.0 Build 142)  -->
  <g>
    <g id="Ebene_1">
      <g>
        <path class="cls-1" d="M24.7,15c0,1.5-.3,2.9-.9,4.2,0,.2-.2.3-.2.5-1.2,2.2-3.1,3.9-5.4,4.7,0,0,0,0,0,0-.4.1-.8.3-1.2.3-.7.2-1.4.2-2.2.2-3.2,0-6.1-1.5-7.9-3.9-.2-.3-.5-.7-.7-1-.9-1.5-1.4-3.2-1.4-5.1s0-.9,0-1.3c0-.3.1-.7.2-1h0c.2-.9.6-1.8,1-2.6,0-.2.2-.3.3-.5.6-.9,1.3-1.7,2.2-2.4.1-.1.3-.2.4-.3,1.5-1.1,3.2-1.7,5.2-1.9.2,0,.4,0,.7,0s.4,0,.5,0c2.6.1,5,1.3,6.7,3.1h0c.8.8,1.5,1.8,1.9,2.9,0,0,0,0,0,0,.5,1.2.8,2.6.8,4Z"/>
        <g>
          <path class="cls-3" d="M23.7,16s0,0,0,0c0,0,0,0,0,0,0,0,0,0,0,0Z"/>
          <path class="cls-3" d="M23.7,16s0,0,0,0c0,0,0,0,0,0h0Z"/>
          <path class="cls-3" d="M23.7,16.2s0,0,0,0c0,0,0,0,0,0,0,0,0,0,0,0,0,0,0,0,0,0Z"/>
          <path class="cls-3" d="M20.5,7.4s0,0,0,0c0,0,0,0,0,0ZM20,7c0,0,.1.1.2.2,0,0,0,0,0,0,0,0,0,0-.1,0,0,0,0,0,0,0ZM19.1,6.5s0,0,0,0c0,0,0,0,.1,0,0,0,0,0,0,0,0,0,0,0,0,0,0,0,0,0,0,0,0,0,0,0,.1,0,0,0,.1,0,.2.1,0,0,0,0,0,0,0,0,0,0,0,0,0,0,0,0,0,0,0,0,0,0-.1,0,0,0,0,0,0,0,0,0,0,0,0,0,0,0,0,0,0,0,0,0,0,0,0,0,0,0,0,0,0,0,0,0,0,0,0,0,0,0,0,0,0,0ZM22.1,17.5s0,0,.2.2c0,0,0,0,0,0,0,0,0,0,0,.1,0,0,0,0,0,.1,0,0,0,0,0,0,0,0,0,0,0,0,0,0,0,0,0,0,0,0,0,0,0,0,0,0,0,0,0,0,0,0,0-.1-.1-.2,0,0,0-.1-.1-.2,0-.1-.1-.2-.2-.2,0,0,0-.1,0-.1,0,0,0,0,0,0ZM8.2,9c0,0-.1,0-.2,0,0,0,0,0,0,0h0s.2,0,.2,0ZM13.1,4.8s0,0,0,0h0c0,0,.1,0,.2,0,0,0,0,0,0,0,0,0,0,0-.1,0,0,0-.1,0-.2,0,0,0-.1,0-.2,0,0,0,0,0,0,0,0,0,0,0,.1,0,0,0,0,0,.1,0ZM12.8,4.9s0,0,0,0c0,0-.2,0-.2.1,0,0,.2,0,.2-.1ZM11.9,5.7h.1c0,0,0,0,.1-.1,0,0,.1,0,.2-.1h.1c0,0,.1,0,.1,0h.2c0-.1,0-.1.1-.1h.1c0,0,.1-.1.2-.1,0,0,0,0,.2-.1,0,0,0,0-.2,0,0,0,0,0,0,0,0,0,0,0,0,0,0,0-.1,0-.2,0,0,0,0,0,0,0,0,0,0,0,0,0,0,0-.1,0-.2,0,0,0,0,0,0,0,0,0,0,0,0,0,0,0-.1,0-.2,0,0,0,0,0,0,0,0,0,0,0,0,0h0c0,0,0,0,0,0,0,0,0,0,0,0,0,0,.1,0,.2,0,0,0,0,0,0,0,0,0,0,0,0,0,0,0,.1,0,.2,0,0,0,0,0,0,0,0,0,0,0,0,0,0,0,.1,0,.2,0,0,0,0,0,0,0,0,0,0,0,0,0,0,0,.1,0,.2,0,0,0,0,0,0,0,0,0,0,0,.1,0,0,0,0,0,0,0,0,0,0,0,0,0,.1,0,.2,0,.4,0,.2,0,.5,0,.7,0h0s0,0,0,0h0s0,0,0,0h0s.2,0,.2,0h.2c.2,0,.5.1.7.2.2,0,.5.1.7.2h0s0,0,0,0h0s.2,0,.2,0h.2c0,0,0,0,0,0h0c.2.1.5.2.7.3.2,0,.4.2.6.3-.1,0-.3,0-.4,0-.3,0-.5,0-.8,0h0s0,0,0,0c0,0-.1,0-.2,0-.1,0-.3,0-.4,0-.3,0-.5,0-.7,0-.2,0-.5,0-.7.1h0s0,0,0,0c0,0-.1,0-.2,0-.1,0-.2,0-.4,0-.2,0-.5.1-.7.2-.2,0-.4.1-.6.2-.2,0-.4.1-.6.2-.4.1-.8.2-1.2.3-.2,0-.4,0-.6,0-.2,0-.4,0-.6,0-.2,0-.5,0-.7,0,0,0,0,0,0,0,.2-.2.4-.3.6-.5.2-.2.6-.4.9-.6,0,0,0,0,.1,0,0,0,0,0,0,0,0,0,0,0,0,0,0,0,.2,0,.2-.1,0,0,0,0,0,0,0,0,0,0,0,0,0,0,0,0,0,0,0,0,.1,0,.1-.1,0,0-.2,0-.3.1h0s0,0,0,0h0s-.1.1-.1.1c0,0,.1,0,.2-.1,0,0,0,0,0,0h.1ZM11.7,5s0,0,0,0c-.1,0-.2.1-.3.2,0,0,0,0,0,0h0s-.2.1-.2.1c-.4.2-.8.5-1.2.8h-.1c0,.1-.1.2-.1.2h-.1c0,.1-.1.2-.1.2h-.1c0,.2,0,.2-.1.2h-.1c0,.2,0,.2-.1.2h0s0,0,0,0c0,0-.1,0-.2-.1,0,0,0,0-.1-.1,0,0,0,0-.1-.1,0,0,0,0,0,0,1-.8,2.3-1.3,3.5-1.6ZM8.2,6.7c0,0,.1.1.2.2,0,0-.1-.1-.2-.2,0,0,0,0,0,0ZM7.6,7.1s0,0,0,0c0,0,.1.1.2.2.1.1.3.2.4.3-.1.2-.3.3-.4.5,0,0,0,0-.1.1,0,0,0,0-.1.1,0,0-.1.2-.2.3,0,0-.1.2-.2.2-.3,0-.7,0-1,0,0,0,0,0,0,0,0,0,0,0-.1,0,.5-.7,1-1.3,1.6-1.8ZM6,8.9c.2,0,.5,0,.7,0,.1,0,.3,0,.4,0,0,0,0,0,0,0,0,0,0,0,0,0-.1,0-.2,0-.4,0-.3,0-.5,0-.8,0,0,0,0,0,0,0ZM5.9,9s0,0,0,0c0,0,0,0,0,0,0,0,0,0,0,0ZM5.9,9.1s0,0,0,0c.2,0,.3,0,.5,0,0,0,0,0,0,0,0,0-.2,0-.5,0,0,0,0,0,0,0,0,0,0,0,0,0,.2,0,.5,0,.7,0-.4,0-.6,0-.8,0,0,0,0-.1.1-.2ZM5.7,9.4s0,0,0,0c0,0,0,0,0,0,0,0,0,0,0,0ZM5,10.8c.2-.4.4-.8.6-1.2.1,0,.3,0,.4,0,.2,0,.5,0,.7,0,0,0,0,0,0,0-.2.3-.4.6-.5,1,0,.1-.1.3-.2.4,0,0-.2,0-.2,0,0,0,.1,0,.2,0,0,0,0,0,0,0,0,0,0,0,0,0-.2,0-.3,0-.5,0-.2,0-.3,0-.5.2,0,0-.1,0-.2,0,0-.2.1-.4.2-.6ZM4.7,11.4c0,0,.2,0,.3-.1.1,0,.3,0,.4-.1.1,0,.3,0,.4,0h0c-.1,0-.2.1-.4.1-.1,0-.3,0-.4.1-.1,0-.2,0-.4.2,0,0,0,0,0,0ZM4.7,11.6s0,0,.1,0c0,0,0,0,0,0,0,0,0,0,0,0,0,0,0,0,0,0,0,0,0,0,0,0,0,0,0,0,0-.1ZM4.6,11.9c0,0,.1,0,.2,0,0,0,.2,0,.3-.1-.2,0-.3.2-.5.3,0,0,0,0,0,0ZM5.6,19.2h0c0-.1,0-.1,0-.1,0,0,0-.2,0-.2,0,0,0,0,0,0,0,0,0,0,0,0,0,0,0,0,0,0,0,0,0,0,0,0,0,0,0,0,0,0,0,0,0,0,0,0,0,0,0,.1,0,.2,0,0,0,0,0,.1h0ZM5.6,12h0c0,0,0,.2,0,.2v.2c0,0-.1.2-.1.2h0c0,0,0,.2,0,.2v.2s0,.2,0,.2h0c0,0,0,.2,0,.2v.2s0,.2,0,.2h0c0,0,0,.2,0,.2v.2s0,.2,0,.2h0c0,0,0,.2,0,.2v.2s0,.2,0,.2h0c0,0,0,.2,0,.2v.2s0,.2,0,.2h0c0,0,0,.2,0,.2,0,.1,0,.2,0,.4v.2c0,0,0,.1,0,.2,0,.5,0,1,0,1.4,0,0,0,.2,0,.3,0-.2-.1-.3-.2-.5-.3-.8-.4-1.7-.4-2.5,0-.2,0-.4,0-.6,0-.2,0-.4,0-.6,0-.4,0-.8.2-1.2,0,0,.1,0,.2-.1.2-.1.4-.2.6-.3.1,0,.3,0,.4-.1h0c0,.1,0,.3,0,.3ZM14,23.9c-.2,0-.4,0-.6,0-.4,0-.8,0-1.3-.2-.4,0-.8-.2-1.2-.3-.4-.1-.8-.3-1.2-.5-.4-.2-.8-.4-1.1-.6h0c0,0,0,0,0,0h-.1c0,0,0-.1,0-.1h0s-.1-.1-.1-.1c0,0,0,0-.1,0h0c0,0,0,0,0-.1h-.1c0-.1,0-.2,0-.2h0c0,0-.1-.2-.1-.2,0,0,0,0-.1-.1h0c0,0,0,0,0-.1h-.1c0-.1,0-.2,0-.2h0c0,0-.1-.2-.1-.2,0,0,0,0-.1-.1h0c0,0,0,0,0-.1-.1-.2-.6-.8-.7-.9,0,0,0,0,0,0,0,0,0-.2,0-.3,0-.2,0,0,0,0-.1-.6-.2-1.2-.3-1.8,0,0,0,0,0-.1,0,0,0,0,0-.1,0,0,0-.2,0-.2,0,0,0-.2,0-.2h0c0-.2,0-.2,0-.2,0,0,0-.2,0-.2,0,0,0-.2,0-.2h0c0-.1,0-.2,0-.2h0c0-.2,0-.2,0-.2v-.2c0,0,0-.2,0-.2,0,0,0,0,0-.1h0c0-.2,0-.2,0-.2h0c0-.4,0-.7.2-1,.1-.6.3-1.2.5-1.8,0,0,0-.1,0-.2,0,0,0,0,0,0,0,0,0,0,0,0h0s0,0,0,0c0,0,.2,0,.3.1.2,0,.3.2.5.3.2.1.3.3.4.5.1.2.2.4.3.6.1.2.2.4.3.6,0,0,0,.1,0,.2,0,0,0,.1,0,.2v.2c0,0,.1.2.1.2h0c0,0,0,.2,0,.2,0,0,0,.1,0,.2,0,.1,0,.2.1.3,0,.1,0,.2.1.3,0,.1,0,.2.1.3.1.5.3.9.4,1.4,0,.2.1.5.2.7,0,.2.2.5.2.7.2.5.3.9.6,1.4.1.2.2.4.3.7h0c0,.1,0,.1,0,.2,0,0,0,.1,0,.2,0,.1.1.2.2.3,0,0,0,.1.1.2,0,0,0,.1.1.1,0,0,.2.2.2.3.2.2.3.4.5.6,0,0,.2.2.3.3h.1c0,.1,0,.2,0,.2h0s0,0,0,0c0,0,.2.2.3.2h.1c0,.1,0,.2,0,.2h0c.2.2.4.3.6.5,0,0,.2.1.2.1-.1,0-.2,0-.4,0ZM15.1,23.8s0,0,0,0c0,0,0,0,0,0,0,0-.1,0-.1,0,0,0,0,0,0,0,0,0,.1,0,.2.1,0,0,.1,0,.2,0,0,0,0,0,0,0,0,0,0,0-.1,0ZM21.5,20.1h0s0,0,0,0h0c-.6.8-1.2,1.4-1.9,1.9-.7.5-1.5.9-2.3,1.2h0c-.5.2-1,.3-1.5.4-.2,0,0,0,0,0,0,0-.1,0-.2,0,0,0-.1,0-.2-.1-.1,0-.3-.1-.4-.2-.3-.2-.5-.3-.8-.5-.5-.4-1-.8-1.4-1.3h0c0-.1,0-.2,0-.2,0,0-.1-.1-.2-.2,0,0,0-.1-.1-.2,0,0,0-.1-.1-.2-.2-.3-.3-.5-.5-.8-.3-.6-.5-1.2-.8-1.7-.2-.5-.3-1-.5-1.6-.2-.6-.3-1.1-.5-1.7,0-.3-.2-.6-.3-.8,0-.1-.1-.3-.2-.4,0-.1-.1-.3-.2-.4-.1-.3-.3-.5-.5-.8-.2-.2-.4-.5-.6-.7,0,0,0,0-.1,0,0,0,0,0,0,0,0,0,0,0,0,0,0,0,0,0-.1,0,0,0,0,0-.1,0,0,0,0,0,0,0,0,0,0,0,0,0,0,0,0,0,0,0,0,0,0,0,0,0,0,0,0,0,0,0,0,0,0,0,0,0,0,0,0,0,0,0,0,0,0,0,0,0,0,0,0,0,0,0,0,0,0,0,0,0,0,0,0,0,0,0,0,0,0,0,0,0,0-.2.2-.4.3-.5.2-.3.3-.6.5-.8h0s0,0,0,0h0s.2,0,.2,0h.2s0,0,0,0h0c0,0,.1,0,.2,0,.1,0,.2,0,.4,0,.2,0,.5.1.7.2.5.1.9.3,1.4.4.1,0,.2,0,.4.1h.2c0,0,.2.1.2.1h0s0,0,0,0c0,0,.1,0,.2,0,.1,0,.2,0,.3.1.5.2.9.4,1.4.6.9.4,1.8.9,2.6,1.4.8.5,1.6,1.1,2.4,1.8,0,0,0,0,.1.1h.1c0,.1,0,.2,0,.2h0c0,0,.1.2.1.2,0,0,0,0,.1.1,0,0,0,0,.1.1,0,0,.2.2.3.3.4.3.7.7,1,1.1.5.6,1,1.2,1.4,1.9,0,0,0,0,0,.1,0,0-.1.2-.2.3,0,0-.1.2-.2.3,0,0-.1.2-.2.3,0,0-.1.2-.2.3h0ZM22.8,18.6s0,0,0,0c0,0,0,0,0,0,0,0,0,0,0,0,0,0,0,0,0,0ZM22.7,19.3c0,0,0,.1-.1.2,0,0,0,0,0,.1,0,0,0,0,0,.1,0,0,0,0,0,.1,0,0,0,0,0,.1-.2.3-.4.6-.6.8h0c.2-.3.4-.5.6-.8,0,0,0,0,0-.1,0,0,0,0,0-.1,0,0,0,0,0-.1,0,0,0,0,0-.1,0,0,0-.2.1-.2v-.2c.1,0,.1,0,.1,0,0,0,0,0,0,0h0c0,0,0-.1,0-.1,0,0,0,0,0,0v-.2c0,0,0,0,.1,0,0,0,0,0,0-.1,0,0,0,0,0-.1,0,0,0,0,0-.1,0,0,0,0,0-.1.1-.3.2-.6.3-.9,0,0,0,0,0,0,0,0,0,0,0,0,0,0,0,0,0-.1,0,0,0,0,0,0,0,0,0,0,0,0,0,0,0-.1,0-.2,0,0,0-.1,0-.2,0,0,0,0,0-.1,0,0,0,0,0,0,0,0,0,.2,0,.2,0,0,0,0,0,0,0,0,0,0,0,0,0,0,0,.1,0,.2,0,0,0,0,0,0,0,0,0,0,0,0,0,0,0,0,0,0,0,0,0,.1,0,.2,0,0,0,.1,0,.2,0,0,0,.1,0,.2,0,.1,0,.2,0,.3,0,0,0,0,0,.1,0,0,0,0,0,.1,0,0,0,0,0,.1,0,0,0,0,0,.1,0,0,0,0,0,0,0,0,0,0,0,0,0,0,0-.1,0-.2,0-.2.2-.5.2-.8,0,0,0-.1,0-.2,0,0,0,0,0,.2,0,.3-.2.5-.3.8,0,0,0,.1,0,.2v.2c0,0,0,0,0,0,0,0,0,0,0,0,0,0,0,0,0,0,0,0,0-.1,0-.2,0,0,0,0,0,0,0,0,0,0,0,0,0,0,0,0,0,0,0-.1,0-.2.1-.3,0,0,0-.1,0-.2,0,0,0-.1,0-.2.1-.4.2-.8.2-1,0,0,0-.1,0-.2,0,0,0,0,0,0,0,0,0,0,0,0,0,0,0-.1,0-.1,0,0,0,0,0-.1,0-.1,0-.2,0-.2,0,0,0,0,0,0,0,0,0,0,0,0,0,0,0,.1,0,.1,0,0,0,.2,0,.2,0,0,0,0,0,0,0,0,0,0,0,0,0,0,0,0,0,.1,0,0,0,.1,0,.2,0-.4.1-.8.1-1.1,0,0,0,0,0-.1,0,0,0,0,0-.1,0,0,0,0,0-.1,0,0,0,0,0-.1,0,0,0-.1,0-.2,0,0,0-.1,0-.2,0,0,0,0,0-.1,0,0,0,0,0,0,0,0,0,0,0,0,0,.1,0,.4,0,1h0c0,0,0,.2,0,.2v.2c0,0,0,.1,0,.2,0,0,0,.1,0,.2v.2s0,0,0,0h0c0,0,0,.2,0,.2h0c0,0,0,0,0,0v.2c0,0,0,.1,0,.2,0,0,0,.1,0,.2v.2c0,0,0,0,0,0h0c0,0,0,.2,0,.2v.2c0,0,0,0,0,0h0c0,0,0,.2,0,.2-.8-1.1-1.7-2.1-2.7-3.1-.3-.2-.5-.5-.8-.7-.3-.2-.6-.5-.9-.7-.6-.4-1.2-.8-1.8-1.2-.5-.3-1-.6-1.6-.9-.6-.3-1.1-.6-1.7-.8-.3-.1-.6-.2-.9-.4,0,0-.1,0-.2,0,0,0,0,0-.1,0,0,0,0,0-.1,0,0,0-.1,0-.2,0,0,0-.1,0-.2,0-.6-.2-1.2-.4-1.7-.5-.3,0-.8-.2-1.2-.3-.2,0-.4,0-.5,0,.3-.4.6-.7.9-1,.1,0,.2,0,.3,0,.2,0,.3,0,.5,0,.2,0,.3,0,.5,0,.2,0,.3,0,.5,0,.2,0,.3,0,.5,0,.2,0,.3,0,.5,0,.6-.1,1.3-.3,1.9-.5h.1s.1,0,.1,0c0,0,.2,0,.2,0,0,0,.2,0,.2,0h.2c.3-.1.6-.2.9-.2.3,0,.6,0,.9-.1.3,0,.6,0,.9,0,.3,0,.6,0,.9,0,.3,0,.6.1.9.2.6.2,1.1.4,1.6.7,0,0,0,0,0,0h.1c0,.1.1.3.1.3.3.4.6.8.9,1.2.3.4.5.9.7,1.3h0c.2.5.4,1.1.5,1.6,0,.3.1.6.2.8,0,.3,0,.6,0,.8,0,0,0,0,0,0,0,0,0,0,0,0,0,0,0,0,0,0,0,0,0,.1,0,.2,0,0,0,.2,0,.2,0,.1,0,.1,0,.1,0,0,0-.1,0-.1,0-.7,0-1.4-.2-2-.1-.6-.3-1.2-.5-1.7h0s0,0,0,0c0,0,0,0,0,0h0c0-.1,0-.1,0-.1,0,0,0,0,0,0,0,0,0,0,0,0,0,0,0,0,0,0,0,0,0,0,0-.1,0,0,0,0,0-.1,0,0,0,0,0,0,0,0,0,0,0,0,0,0,0,0,0-.1,0,0,0,0,0-.1,0,0,0,0,0,0,0,0,0,0,0,0-.2-.3-.4-.6-.6-.9-.2-.2,0-.1,0,0,0,0,.1.1.1.1,0,0,0,0,0-.1,0-.1-.2-.3-.3-.4,0,0-.1-.1-.2-.2h-.1c0-.2,0-.2,0-.2h0c0,0,0-.1,0-.1,0,0,0,0,0,0,0,0,0,0-.1-.1,0,0,0,0,0,0,0,0,0,0,0,0,0,0,0,0,0,0,0,0,0,0,0,0,0,0,0,0,0,0,0,0,0,0,0,0,0,0-.1-.1-.2-.2,0,0,0,0,0,0,0,0,0,0,0,0,0,0,0,0,0,0,0,0,0,0,0,0,0,0,0,0,0,0,0,0,0,0,0,0,0,0,0,0,0,0,0,0,0,0,0,0,0,0,0,0,0,0,0,0,0,0,0,0,0,0,0,0,0,0,0,0,0,0-.1-.1,0,0,0,0,0,0,0,0,0,0,0,0,0,0,0,0,0,0,0,0,0,0,0,0-.2-.2-.5-.4-.9-.6-.3-.2-.6-.3-.9-.5-.1,0-.3-.1-.4-.2-.1,0-.2,0-.3-.1,0,0,0,0-.1,0,0,0,0,0-.1,0,0,0-.1,0-.2,0,0,0,0,0,0,0,0,0,0,0,0,0,0,0,0,0,0,0,0,0,0,0,0,0,.1,0,.3,0,.4.1,0,0,0,0,.1,0,0,0,0,0,.1,0,0,0,0,0,0,0,0,0,0,0,0,0,0,0,0,0,0,0,0,0,0,0,.2,0,.2,0,.4.2.6.3.2.1.4.2.6.4.2.1.4.3.6.4-.2-.2,0,0,.3.2,0,0,.1.1.2.2,0,0,0,0,.1,0,0,0,0,0,0,0,.1.1.2.2.2.2,0,0,0,0-.1-.3,0,0,0,0,0,0,0,0,0,0,0,0,0,0,0,0,0,0,0,0,0,0,0,0,0,0,0,0,0,0,0,0,0,0,0,0,0,0,0,0,0,0,0,0,0,0,0,0,0,0,0,0,0,0,0,0,0,0,0,0,0,0,0,0-.1,0,0,0,0,0-.1,0-.2-.1-.4-.3-.6-.4-.3-.2-.2-.2-.2-.1,0,0,.2,0,.2,0-.3-.2-.7-.4-1.1-.5,0,0,0,0-.1,0,0,0,0,0-.1,0,0,0,0,0-.1,0h0s0,0,0,0c0,0,0,0-.1,0,0,0,0,0-.1,0,0,0,0,0-.1,0,0,0,0,0-.1,0-.4-.1-.8-.2-1.2-.3-.2,0-.4,0-.6,0h-.2c0,0-.1,0-.2,0-.1,0-.2,0-.3,0-.4,0-.8,0-1.2,0-.1,0-.2,0-.3,0-.1,0-.2,0-.3,0-.1,0-.2,0-.3,0,0,0-.1,0-.2,0h-.2c-.4,0-.8.2-1.2.3-.4.1-.8.3-1.2.4,0,0-.2,0-.3.1h-.1c0,0,0,.1-.1.1h-.3c0,.1-.3.3-.3.3,0,0,0,0-.1,0h-.1c0,.1-.2.2-.3.2h-.1c0,0-.1.2-.1.2,0,0-.6.4-.6.4l-.5.4h-.1c-.1.2-.3.4-.4.5h0c0,0,0,0,0,.1h-.1c0,.2-.1.3-.2.3,0,0-.1.2-.2.2,0,0,0,0,0,.1h0c0,0,0,.1,0,.1-.1.2-.2.3-.3.5-.2.3-.4.7-.6,1.1,0,.2-.2.4-.3.5,0,.2-.2.4-.2.6-.1.4-.2.8-.3,1.2h0c0,.5-.2.9-.2,1.4,0,.2,0,.5,0,.7,0,.1,0,.2,0,.3,0,.1,0,.2,0,.3,0,.4,0,.7.1,1.1,0,0,0,.2,0,.3,0,0,0,.2,0,.3,0,0,0,0,0,.1,0,0,0,0,0,.1h0c0,0,0,.1,0,.1h0c0,0,0,.1,0,.2,0,.4.2.7.4,1.1.1.4.3.7.5,1.1,1.2,2.2,2.3,3,3.2,3.6.7.5,1.4.9,2.2,1.2.8.3,1.5.5,2.3.6.4,0,.8,0,1.2,0,.4,0,.8,0,1.2,0,1-.1,1.9-.4,2.2-.5.1,0,.2,0,.3-.1,0,0,0,0,0,0,.2,0,.4-.2.7-.3.2,0,.5-.2.7-.3.2-.1.5-.3.7-.4h0c0,0,0,0,0-.1,0,0,0,0,0,0h0s0,0,0,0c0,0,.1,0,.2-.1,0,0,.1,0,.2-.1.2-.2.4-.3.6-.5.2-.2.4-.3.5-.5.3-.3.5-.6.7-.8-.4.5-.8.9-1.2,1.3.7-.6,1.2-1.3,1.7-2,.2-.2.3-.5.5-.7v-.2c.2,0,.2-.1.2-.2,0,0,0,0,0,0h0c.2-.5.3-.8.4-1.1,0,0,0,0,0,0,0,0,0-.2.1-.5,0,.3-.2.6-.3.9,0,0,0,0,0,.1,0,0,0,0,0,.1,0,0,0,0,0,.1,0,0,0,0,0,.1,0,0,0,0,0,0v.2c-.1,0-.2.2-.2.2,0,0,0,0,0,0v.2Z"/>
        </g>
      </g>
      <text class="cls-2" transform="translate(27.6 19.9)"><tspan x="0" y="0">Ballin‘ Central</tspan></text>
    </g>
  </g>
</svg>