<?xml version="1.0" encoding="UTF-8"?>
<svg xmlns="http://www.w3.org/2000/svg" version="1.1" viewBox="0 0 1592 1321">
  <defs>
    <style>
      .cls-1 {
        font-family: TitilliumWeb-Black, 'Titillium Web';
        font-size: 733.6px;
        font-weight: 800;
      }

      .cls-2 {
        fill: #fb923c;
      }
    </style>
  </defs>
  <!-- Generator: Adobe Illustrator 28.7.1, SVG Export Plug-In . SVG Version: 1.2.0 Build 142)  -->
  <g>
    <g id="Ebene_2">
      <g>
        <path class="cls-2" d="M147.5,285c26-37.6,59.6-64.9,99.1-82.1,52.8-23,108-42.3,163.9-56.2,49.4-12.3,101.3-14.1,151.8-22.5,98.7-16.4,197.9-11.4,296.8-6.2,95.8,5,189.4,26.7,282.1,51.2,63.9,16.9,126.9,38.7,176.2,84.3,37.3,34.5,74.9,71.3,101.3,113.9,36.1,58.3,65.1,121.8,90.6,185.6,18.1,45.3,27.1,95.5,7.9,143.9-23.7,59.8-60.2,112.4-106.8,156.1-38,35.6-81.5,65.4-125.5,100.1,7.9,13.9,15.8,27.2,23.2,40.8,45.6,84.2,91.4,168.3,136.2,253,3.7,7,0,18-.3,27.1-9.8-1.7-21-1-29-5.8-11.2-6.7-19.1-18.7-29.9-26.2-79.6-55.1-159.3-110-239.5-164.2-19-12.8-38.8-27.7-60.4-32.8-38.8-9.3-79.1-12.1-118.8-17.4-61.8-8.2-123.6-16.4-185.4-24.1-82.8-10.3-166.2-17.1-248.4-30.8-109.1-18.2-212.9-56.1-315.3-96.9-41.2-16.4-80.2-39.4-105.1-78.9-8.9-14.1-16.3-29.1-25.5-43-51.3-77.4-53.2-164.3-43.2-251.1,9.6-83.2,57.4-150.4,104-217.7Z"/>
        <path d="M1342.7,939.5c45.7,84.3,91.5,168.5,136.3,253.2,3.7,7,0,18-.3,27.1-9.8-1.7-21.1-1-29.1-5.8-11.2-6.7-19.1-18.7-29.9-26.2-79.6-55.2-159.4-110.1-239.7-164.4-19-12.9-38.9-27.7-60.5-32.9-38.8-9.3-79.2-12.1-118.9-17.4-61.8-8.2-123.7-16.4-185.6-24.1-82.9-10.3-166.3-17.1-248.6-30.8-109.2-18.3-213.1-56.2-315.6-97-41.3-16.5-80.2-39.4-105.2-79-8.9-14.1-16.3-29.1-25.6-43-51.4-77.5-53.2-164.5-43.2-251.4,9.6-83.3,57.4-150.5,104.1-217.9,26.1-37.6,59.6-64.9,99.2-82.2,52.9-23.1,108.1-42.3,164-56.3,49.4-12.4,101.4-14.2,151.9-22.6,98.8-16.4,198.1-11.5,297-6.3,95.9,5,189.6,26.8,282.3,51.3,63.9,16.9,127,38.7,176.3,84.4,37.3,34.5,75,71.3,101.4,114,36.1,58.3,65.1,121.9,90.7,185.8,18.2,45.4,27.1,95.6,7.9,144.1-23.8,59.8-60.3,112.5-106.9,156.2-38,35.7-81.5,65.5-125.6,100.2,7.9,13.9,15.8,27.2,23.2,40.9ZM1272.5,896.2c6.4-7,14.5-18.2,24.8-26.5,42.7-34.1,90.3-63.1,128-101.9,43.8-45,85.4-94.8,97.9-160.2,8.6-44.7-4-87.3-21.7-126.7-25.5-56.8-52.4-113.7-86-165.9-37.7-58.5-89.2-104.6-154.9-133.3-113.8-49.7-234-71.8-356.3-83.1-104.4-9.6-208.7-8.7-313.4,4.3-66.7,8.3-132.8,16.8-197.2,35.7-53.8,15.7-109.5,33.5-149,72.9-37.2,37.1-64.6,84.6-93.2,129.5-55.7,87.3-55.9,185.2-29.8,278.4,20.9,74.6,65,141.7,147,170.9,96.7,34.5,192.5,72.3,294.5,88,85.8,13.2,172.4,21.3,258.5,32.6,68.5,8.9,136.8,19.2,205.2,28.6,30.9,4.3,63.6,3.3,92.3,13.5,31.5,11.2,60.8,30.6,88.6,50,67.3,47,133.2,96.1,199.7,144.3,2.5-2.2,5-4.4,7.6-6.5-46.2-79.6-80.1-166.1-142.6-244.6Z"/>
        <text class="cls-1" transform="translate(564.6 717.3) rotate(14.2)"><tspan x="0" y="0">?</tspan></text>
      </g>
    </g>
  </g>
</svg>