<?xml version="1.0" encoding="UTF-8"?><svg id="Ebene_2" xmlns="http://www.w3.org/2000/svg" viewBox="0 0 1719.44 1704.57"><defs><style>.cls-1{fill:#f47027;}</style></defs><g id="Objects"><path class="cls-1" d="M1719.44,894.61c0,122.57-27.21,238.76-75.94,342.89-5.94,12.69-12.19,25.19-18.75,37.5-93.81,176.03-250.72,313.35-440.5,381.76-.02.02-.05.02-.07,0-30.94,11.17-62.68,20.51-95.26,27.85-57.72,13.07-117.77,19.96-179.43,19.96-260.86,0-492.92-123.33-641.03-314.87-20.13-26-38.68-53.23-55.56-81.6-72-121.02-113.35-262.43-113.35-413.49,0-35.38,2.26-70.22,6.68-104.39,3.49-27.23,8.34-53.99,14.47-80.27v-.02c17.28-74.07,44.72-144.24,80.77-208.94,7.37-13.24,15.11-26.26,23.19-39.02,47.57-75.14,107.17-141.93,176.1-197.61,11.03-8.96,22.31-17.58,33.84-25.92,119.5-86.64,263.6-141.43,419.83-151.91,18.2-1.24,36.55-1.85,55.06-1.85,14.83,0,29.56.4,44.2,1.19,212.2,11.41,402.68,104.51,540.57,248.36l.02.02c65.8,68.63,119.62,148.8,158.09,237.17.02.02.05.05.05.09,43.13,98.97,67.03,208.23,67.03,323.1Z"/><path d="M1642.19,978.93c-.21,1.18-.43,2.36-.64,3.55.21-1.16.42-2.3.62-3.41,0-.05.01-.09.02-.13Z"/><path d="M1642.86,974.58c-.22,1.41-.44,2.86-.67,4.36,0,0,0,0,0,0l.67-4.36Z"/><path d="M1639.46,993.95c-.12.72-.25,1.44-.38,2.17.25-1.41.51-2.83.77-4.25.25-1.42.51-2.86.77-4.29-.38,2.06-.76,4.19-1.16,6.37Z"/><path d="M1375.33,278.07c.71.67,1.42,1.35,2.13,2.02-2.04-1.12-2.53-1.71-2.13-2.02ZM1339.46,246.11c5.32,4.44,10.57,8.95,15.76,13.54-2.53-1.22-5.01-2.41-7.35-3.54-3.87-1.71-7.39-3.26-10.2-4.5-4.52-4.09-1.62-4.91,1.79-5.5ZM1262.09,206.38c.65-.1,2.34.08,4.86.49,2.51.4,5.8,1.22,9.67,2.13,1.94.48,4.02,1,6.21,1.54,1.1.28,2.22.57,3.37.86,1.14.33,2.3.68,3.48,1.03,3.52,1.05,7.22,2.14,10.99,3.3,4.84,3.56,9.64,7.17,14.39,10.84-2.19-.84-4.41-1.68-6.64-2.51-1.85-.7-3.7-1.39-5.53-2.07-1.83-.68-3.68-1.26-5.47-1.88-3.6-1.21-7.06-2.4-10.22-3.53-.79-.28-1.56-.56-2.32-.83-.76-.25-1.49-.5-2.21-.74-1.44-.48-2.78-.96-4.01-1.41-2.46-.91-4.48-1.76-5.91-2.52-2.24-.84-4.1-1.54-5.62-2.1-1.53-.55-2.7-1.01-3.55-1.37-1.71-.74-2.13-1.13-1.49-1.23ZM1505.46,1099.53c1.51,1.05,6.63,7.4,13.8,16.6,1.79,2.3,3.72,4.77,5.71,7.41,1.96,2.66,4.02,5.47,6.15,8.38,2.12,2.91,4.32,5.93,6.57,9.02,1.11,1.55,2.24,3.11,3.38,4.69,1.11,1.59,2.22,3.2,3.34,4.82,1.46,2.12,2.93,4.24,4.4,6.37-.87,1.96-1.74,3.92-2.62,5.87-.45-.66-.89-1.32-1.33-1.99-3.23-4.83-6.4-9.69-9.56-14.3-3.18-4.6-6.23-9.02-8.99-13.11-5.47-8.23-10.08-14.93-12.26-19.1-3.86-5.83-6.35-9.78-7.71-12.13-1.39-2.32-1.61-3.07-.88-2.53ZM382.36,407.25c-5.4-.45-10.8-.93-16.2-1.42.22-.3.45-.6.67-.9l1.46.19,14.07,2.13ZM774.69,69.08c1.32-.55,2.68-1.11,4.06-1.68l7.35-.64c4.72-.32,9.41-.6,14.13-.84-.87.36-1.73.71-2.61,1.07-2.89,1.19-5.83,2.4-8.77,3.61-5.89,2.42-11.78,4.84-17.17,7.06-5.34,2.34-10.19,4.47-14.07,6.18-.55-1.25-1.65-3.74-2.19-4.99-.28-.62,3.48-2.65,9.26-5.39,2.88-1.4,6.32-2.85,10.01-4.38ZM754.57,69.65c.64-.07,1.29-.14,1.93-.21-6.68,2.95-13.37,5.9-20.06,8.84,6.41-2.96,12.43-5.85,18.13-8.63ZM677.39,140.49l8.25-4.53c2.76-1.5,5.52-3,8.34-4.37,5.62-2.81,11.26-5.57,16.91-8.31l8.49-4.09,8.59-3.88,17.15-7.79c2.84-1.34,5.75-2.54,8.62-3.81l8.62-3.8c5.75-2.53,11.43-5.22,17.16-7.8-1.06-2.52-1.61-3.76,13.46-11.43-3.89,1.62-8.01,3.33-12.32,5.13-2.15.91-4.37,1.8-6.57,2.8-2.21,1-4.46,2.02-6.73,3.05-4.55,2.06-9.22,4.18-13.95,6.32-2.36,1.08-4.74,2.15-7.13,3.23-2.36,1.14-4.73,2.27-7.1,3.41-4.74,2.27-9.48,4.53-14.16,6.77-2.35,1.11-4.68,2.21-6.99,3.3-2.31,1.08-4.55,2.25-6.8,3.34-4.47,2.22-8.84,4.34-13.05,6.35-2.11,1-4.18,1.98-6.19,2.93-2.03.93-4,1.84-5.88,2.77l-1.89-3.62c1.81-1.09,3.73-2.12,5.7-3.17,1.98-1.04,4.01-2.11,6.08-3.19,4.16-2.16,8.51-4.36,13-6.59,2.25-1.1,4.51-2.27,6.84-3.34,2.33-1.06,4.69-2.14,7.06-3.22,4.74-2.15,9.55-4.33,14.35-6.5,2.41-1.08,4.81-2.16,7.21-3.24,2.42-1.03,4.84-2.05,7.24-3.06,4.78-2.06,9.51-4.09,14.11-6.06,2.29-1.01,4.56-2.01,6.78-2.99,2.22-.99,4.44-1.87,6.59-2.8,4.31-1.83,8.41-3.64,12.25-5.4-.51-1.26-1.54-3.79-2.06-5.05-.26-.63,3.54-2.55,9.36-5.13.59-.27,1.22-.55,1.86-.82.24-.01.47-.02.71-.04,10.13-.5,20.28-.79,30.44-.9,20.29-.19,40.64.3,60.88,1.76l7.59.48,7.58.68,7.58.66,3.79.34,3.78.43,15.12,1.71,15.08,2.08c20.07,2.96,40.02,6.65,59.81,11.09,19.77,4.47,39.35,9.81,58.71,15.8l7.25,2.28,3.63,1.14,3.6,1.22,14.38,4.91,14.27,5.25c2.39.85,4.73,1.8,7.09,2.73l7.07,2.79c18.81,7.54,37.33,15.79,55.52,24.72,16.38,8.12,32.47,16.82,48.25,26.05-10.75-2.01-21.58-3.73-32.46-5.14-20.46-2.6-41.1-4.04-61.72-4.59l-7.73-.16c-2.58-.05-5.16-.12-7.73-.07-5.15.04-10.29.08-15.44.12-10.27.33-20.56.62-30.77,1.35-20.44,1.3-40.76,3.31-60.8,6.12-20.05,2.77-39.92,6.04-59.45,9.94l-7.33,1.43c-2.43.51-4.85,1.02-7.28,1.53-4.85,1.04-9.69,2.07-14.52,3.11-9.61,2.2-19.21,4.33-28.68,6.71-19,4.59-37.65,9.64-56.04,14.79-15.33,4.3-31.06,8.71-47.08,13.2-15.98,4.52-32.13,9.13-48.4,13.63-32.55,9.01-65.59,17.57-98.55,24.03-16.5,3.24-32.92,5.96-49.22,7.96-16.31,2.01-32.5,3.34-48.42,3.91-18.51.67-36.63.28-54.1-1.19.87-.75,1.74-1.5,2.63-2.22,16.49-13.82,32.88-27.17,49.26-39.65,19.65-15.42,48.03-32.97,74.85-48.9,3.36-1.99,6.69-3.96,9.97-5.91,1.63-.98,3.26-1.96,4.87-2.92,1.6-.98,3.24-1.87,4.84-2.8,6.4-3.68,12.51-7.29,18.16-10.77,1.42-.88,2.8-1.75,4.16-2.59,1.37-.83,2.72-1.64,4.04-2.44,2.62-1.6,5.11-3.18,7.45-4.71,4.67-3.08,8.74-6,12.03-8.72-7.37,3.93-14.74,7.87-22.1,11.81l-2.77,1.48-2.72,1.55-5.45,3.09-10.89,6.19c5.19-3.53,10.45-6.97,15.77-10.31,2.63-1.71,5.37-3.24,8.09-4.81l8.2-4.64ZM665.13,84.68s-.03.01-.04.02c-8.5,4.5-17.01,9.01-25.51,13.52-2.14,1.1-4.24,2.28-6.33,3.47l-6.3,3.55-12.59,7.11c-33.43,19.25-66.03,40.14-97.54,62.77l-11.81,8.49-11.6,8.82-11.6,8.82-11.37,9.14-11.36,9.16c-3.73,3.13-7.41,6.32-11.12,9.47l-11.11,9.5c-3.66,3.26-7.3,6.6-10.95,9.9l-2.43,2.21c-.86-.49-1.72-1-2.58-1.53-4.14-2.54-8.3-5.46-12.35-8.51-4.05-3.06-7.96-6.33-11.74-9.5-3.74-3.24-7.34-6.4-10.72-9.43-2.32-2.07-4.54-4.04-6.67-5.88,85.05-62.54,182.94-107.44,285.72-131.1ZM377.42,217.24c4.81,5.11,9.79,10.01,14.95,14.58-5.75-4.01-11.15-8.62-16.23-13.63.43-.32.85-.64,1.28-.95ZM329.72,255.6c1.07-.93,2.15-1.85,3.22-2.78,4.57,5.04,9.32,9.96,14.28,14.76,9.86,9.46,20.45,18.44,32.47,26.58-11.98,12.83-23.66,25.97-34.9,39.52-3.16,3.75-6.22,7.59-9.33,11.39-3.04,3.86-6.13,7.67-9.11,11.57-6.05,7.75-11.9,15.66-17.67,23.62-4.54,6.27-8.88,12.56-13.21,18.87-27.38-2.48-54.98-4.57-82.88-3.95,0,1.36-.01,2.38-2.39,3.24-1.75.64-4.8,1.16-10.08,1.77,36.99-53.32,80.63-102.03,129.6-144.59ZM199.75,400.73c17.86-.38,38.98-.25,60.01.7,11.11.49,22.18,1.18,32.73,2.04-.2.29-.4.58-.6.88-.88,1.3-1.75,2.61-2.62,3.91-9.65-.78-19.68-1.58-29.74-2.24-22.05-1.48-44.25-2.2-62.56-1.25.92-1.35,1.85-2.7,2.78-4.04ZM193.79,409.44c.01.36.02.7.03.97,0,.19-.36.36-1.01.51.33-.49.65-.99.98-1.48ZM192.21,411.82c.55-.02,1.11-.03,1.66-.05,14.03-.41,28.04-.23,37.36-.01-.03,1.36-.1,4.09-.13,5.44-.03,1.36-18.54.85-37.05,1.38.03,1.36-4.54,2.84-6.78,4.14-2.25,1.31-2.2,2.26,6.96,2.67,18.31-.5,36.67-.19,55.06.6-28.53-.71-51.44.91-68.53,3.49,3.74-5.94,7.56-11.83,11.45-17.66ZM174.19,440.13c.42-.05.85-.1,1.29-.16-.44.07-.88.14-1.32.21.01-.02.02-.04.03-.05ZM118.86,550.33c13.83-33.99,30.07-67.03,48.53-98.75,10.6-.86,21.52-1.3,32.5-1.45,19.27-.25,38.89.37,58.61,1.5,1.08.06,2.17.14,3.25.21-15.41,25.81-29.69,52.27-42.88,79.26-5.51,11.34-10.82,22.79-15.95,34.31-6.91,1.12-12.84,2.66-17.64,4.37,5.48-.92,11.03-1.65,16.67-2.18-.27.6-.54,1.2-.81,1.81-.45.05-.9.09-1.35.15-14.35,1.77-28.25,4.48-41.81,8.04-13.58,3.52-26.86,7.82-39.77,13.01-5.68,2.28-11.3,4.73-16.84,7.34,5.31-16.05,11.14-31.94,17.49-47.62ZM99.02,605.16c8.11-4.07,16.65-7.97,25.37-11.5,10.6-4.28,21.46-8.01,32-10.92,10.54-2.93,20.77-5.03,30.02-6.24l.68,4.02c-8.99,1.87-18.96,4.17-29.33,7.07-10.36,2.89-21.12,6.35-31.67,10.35-9.92,3.74-19.65,7.96-28.73,12.46.55-1.75,1.1-3.49,1.66-5.24ZM94.44,619.97c3.65-1.92,7-3.62,9.86-5.01.6,1.22,1.79,3.67,2.39,4.9.14.3-.71,1.02-2.33,2.04-1.6,1.04-4,2.32-6.81,3.95-1.77.97-3.72,2.07-5.78,3.24.87-3.05,1.76-6.09,2.67-9.12ZM89.16,638.49c4.45-2.59,8.95-5.09,13.52-7.46,7.55-3.9,15.25-7.52,23.06-10.87-14.75,6.67-27.12,13.82-37.24,20.77.22-.81.44-1.63.66-2.44ZM167.44,1232.94l-6.49-11.3c-.11-.17-.21-.35-.31-.53-1.09-7.54-1.82-13.74-1.86-17.53-.41-3.16-.53-5.83-.7-7.99-.14-2.17-.22-3.85-.24-5.09-.05-2.48.13-3.17.49-2.42.37.75.91,2.94,1.59,6.26.34,1.65.71,3.59,1.11,5.76.45,2.17.95,4.57,1.49,7.17,1.07,5.19,2.25,11.17,3.48,17.61.51,2.69,1.04,5.48,1.58,8.31l-.14-.25ZM168.5,652.56l-2.41,6.9-2.28,6.94-4.55,13.89-4.28,13.98-2.13,6.99-2,7.03-3.99,14.06-3.71,14.14-1.85,7.07-1.71,7.11-3.41,14.22-3.13,14.29-1.55,7.14-1.42,7.18-2.82,14.35-2.52,14.41-1.25,7.2-1.12,7.24-2.2,14.46-1.9,14.52-.94,7.25-.79,7.28-1.57,14.56-1.24,14.59-.62,7.29-.49,7.18c-.63,9.58-1.34,19.12-1.77,28.78l-.74,14.44c-.27,4.81-.33,9.67-.51,14.5-1.27,38.68-.6,77.59,2.05,116.23.63,7.64,1.26,15.28,1.89,22.92-5.35-13.92-10.32-27.98-14.85-42.18-21.14-66.22-33.19-135.32-35.9-204.87-.5-17.39-.93-34.8-.39-52.2.46-17.4,1.49-34.78,3.11-52.09,3.02-32.28,8.05-64.37,15.06-96,5.47-3.82,11.13-7.47,16.93-10.93,14.69-8.77,30.37-16.29,46.43-22.5,10.81-4.18,21.86-7.71,32.87-10.44l-3.46,9.27-4.84,13.8ZM847.38,1618.8c-17.32.13-34.64-.27-51.93-1.16-34.59-1.79-69.03-6.11-103.04-12.58-34.01-6.5-67.61-15.21-100.47-26.18-32.83-11.06-64.93-24.29-96.05-39.58-31.15-15.22-61.15-32.78-89.95-52.12l-5.4-3.63c-1.8-1.2-3.61-2.4-5.36-3.68l-10.59-7.56-5.3-3.78-5.19-3.93-10.38-7.84c-3.45-2.63-6.79-5.41-10.19-8.1l-5.08-4.07c-1.69-1.35-3.4-2.69-5.04-4.12l-9.93-8.41-4.96-4.21-4.85-4.35-9.69-8.69c-3.23-2.9-6.32-5.95-9.49-8.92l-4.72-4.48c-1.58-1.49-3.17-2.97-4.68-4.52l-9.2-9.22-4.6-4.61-4.47-4.74-8.94-9.47c-2.97-3.16-5.8-6.46-8.71-9.68l-4.34-4.85c-1.44-1.63-2.9-3.23-4.28-4.9-11.28-13.21-50.23-64.53-58.46-76.87-.03-.32-.07-.64-.11-.97-.73-6.41-1.67-13.7-2.83-22-1.99-16.66,5.35-1.02,8.02-1.57-9.56-49.01-16.77-99.33-20.4-150.29-.23-3.19-.56-6.37-.7-9.56-.16-3.19-.31-6.39-.46-9.58-.31-6.39-.62-12.79-.93-19.19-.19-6.41-.26-12.82-.4-19.24l-.2-9.64c-.09-3.21.02-6.43.02-9.65.04-6.44.09-12.88.13-19.33.13-6.45.39-12.92.57-19.39l.3-9.7.5-9.73.49-9.74c.16-3.25.31-6.49.55-9.76l1.28-19.58c.47-6.47,1.04-12.81,1.55-19.23.23-3.2.61-6.39.93-9.58l.99-9.58c.3-3.19.7-6.38,1.11-9.56l1.19-9.55c3.32-25.45,7.61-50.75,12.78-75.76,10.37-50.03,24.12-98.96,40.76-145.86,1.66-4.91,3.55-9.78,5.4-14.69.46-1.23.93-2.47,1.4-3.71,2.04.41,4.07.85,6.1,1.35l5.61,1.51c1.88.5,3.7,1.17,5.55,1.73,7.37,2.46,14.56,5.49,21.57,9.07,13.98,7.26,27.17,16.76,39.4,27.99,12.2,11.29,23.52,24.15,33.81,38.2,10.37,13.99,19.73,29.13,28.38,44.86,8.59,15.79,16.46,32.19,23.62,49.06,1.82,4.16,3.55,8.58,5.33,12.88,1.75,4.34,3.57,8.63,5.23,13.02l5.09,13.12,4.92,13.22,2.44,6.62,2.37,6.67c1.57,4.45,3.17,8.88,4.71,13.36,3.05,8.96,6.14,17.9,9.07,26.95,3,8.99,5.85,18.1,8.76,27.17,2.83,9.12,5.7,18.21,8.47,27.4,11.2,36.64,21.94,73.76,33.18,111.03,5.63,18.65,11.41,37.33,17.39,56.01,6.05,18.68,12.28,37.36,18.94,56,13.35,37.24,28.18,74.32,45.71,110.5,8.78,18.07,18.05,35.99,28.3,53.46l3.79,6.57c1.29,2.18,2.64,4.32,3.96,6.49,2.67,4.31,5.28,8.65,8,12.93,5.59,8.48,11.05,17.03,17.02,25.29,2.95,4.14,5.82,8.36,8.88,12.38,3.03,4.04,6,8.15,9.14,12.1,6.15,8.01,12.5,15.84,18.94,23.59,12.87,15.5,26.43,30.37,40.43,44.79,6.94,7.27,14.19,14.23,21.37,21.26l11.01,10.28,2.75,2.57,2.81,2.51,5.63,5.01c7.44,6.75,15.23,13.11,22.89,19.61l11.78,9.4c1.97,1.56,3.91,3.16,5.91,4.68l6.02,4.54c15.93,12.25,32.58,23.57,49.45,34.51,6.54,4.03,13,8.17,19.6,12.09-9.98.5-19.98.81-29.98.91ZM937.09,1612.64c-2.56-1.36-4.93-2.64-7-3.9-3.07-1.88-5.57-3.53-7.32-4.86-5.55-3.42-9.24-5.7-11.26-7.23-2.01-1.53-2.46-2.11-1.63-1.92,1.61.45,8.48,3.67,18.13,8.5,4.79,2.5,10.44,5.06,16.47,7.93.26.12.52.25.78.38-2.72.37-5.44.75-8.17,1.1ZM1458.35,1310.21l-2.03,2.72-2.1,2.68-4.18,5.35c-44.75,57.07-97.53,107.93-156.38,150.56-56.95,41.3-119.58,74.85-185.66,99.3l-6.61,2.38c-40.24,14.52-81.72,25.61-123.86,33.22-13.3-7.63,3.01-4.58,4.04-7.05-5.64-2.57-11.3-5.15-16.97-7.74-5.59-2.78-11.18-5.57-16.79-8.36-11.1-5.84-22.2-11.81-33.07-18.33-21.8-12.9-43.06-27.17-63.62-42.67-41.13-30.99-79.42-66.9-113.81-106.15l-6.36-7.43c-2.1-2.49-4.26-4.94-6.29-7.48-4.12-5.05-8.29-10.06-12.25-15.21-4.06-5.09-7.92-10.3-11.82-15.48-3.82-5.21-7.49-10.5-11.25-15.73-14.69-21.21-28.07-43.38-40.33-66.2-24.5-45.65-44.5-93.75-62.38-141.99-14.76-40.29-28.23-83.75-41.51-128.79-13.35-45.01-26.58-91.58-41.72-137.92-7.58-23.17-15.61-46.28-24.32-69.06-4.32-11.42-8.91-22.65-13.6-33.93-4.79-11.33-9.89-22.51-15.32-33.49-10.87-21.96-23.08-43.14-37.02-62.93-13.92-19.77-29.66-38.14-47.3-54.03-2.62-2.45-5.53-4.85-8.44-7.42-1.44-1.29-3.02-2.51-4.56-3.8-1.56-1.26-3.09-2.6-4.74-3.86-3.29-2.53-6.61-5.19-10.18-7.69-3.49-2.6-7.23-5.03-10.99-7.54-1.88-1.24-3.86-2.39-5.81-3.6-.98-.59-1.96-1.19-2.94-1.79-1-.58-2.02-1.13-3.03-1.7-2.04-1.12-4.06-2.28-6.13-3.37-2.1-1.04-4.21-2.09-6.32-3.14-2.09-1.08-4.28-1.97-6.44-2.94-2.16-.95-4.31-1.94-6.53-2.75-2.21-.85-4.42-1.7-6.62-2.54-2.23-.76-4.47-1.48-6.69-2.21-1.12-.36-2.22-.74-3.35-1.07-1.12-.3-2.24-.61-3.36-.92-.6-.16-1.18-.32-1.77-.48,6.81-14.63,14.11-29.24,21.84-43.79,12.27-23.03,25.72-45.88,40.17-68.18l2.78.31,7.33.8,7.32.98,14.64,1.95,14.61,2.29c2.43.39,4.87.73,7.3,1.16l7.29,1.3c4.86.89,9.73,1.7,14.58,2.64,9.7,1.98,19.42,3.79,29.09,6.03,19.39,4.16,38.69,9.1,57.99,14.23,38.58,10.5,77.02,22.49,115.43,35.51,9.6,3.27,19.21,6.5,28.81,9.88l14.4,5.02,14.41,5.11,7.2,2.55,7.14,2.56c4.71,1.69,9.41,3.43,14.11,5.18,9.4,3.52,18.79,7.09,28.14,10.8,37.44,14.77,74.47,30.93,110.99,48.21,73.02,34.62,144.08,73.72,212.31,117.17,68.21,43.47,133.71,91.18,195.31,143.34,3.84,3.27,7.71,6.5,11.53,9.79l11.4,9.95,5.7,4.97,5.62,5.05,11.25,10.1c3.73,3.39,7.41,6.84,11.11,10.26,3.68,3.44,7.44,6.8,11.05,10.31,7.27,6.97,14.64,13.84,21.76,20.96,28.72,28.23,56.44,57.43,82.81,87.75,42.14,48.47,81.16,99.52,116.4,152.9-1.83,3.55-3.67,7.1-5.55,10.62-4.38,7.92-8.63,15.91-13.26,23.7-4.46,7.87-9.28,15.54-13.99,23.28-4.92,7.6-9.73,15.28-14.89,22.73-5,7.55-10.35,14.87-15.6,22.26l-8.12,10.9ZM1562.15,1187.95s-.01-.03-.02-.04c1.03-2.22,2.04-4.42,3.02-6.62.03.03.05.06.07.1-1.01,2.19-2.03,4.38-3.07,6.56ZM1560.55,1245.58c-3.36,6.04-6.78,12.03-10.24,17.95-1.85,3.19-3.8,6.3-5.69,9.43-1.92,3.11-3.77,6.25-5.72,9.31-1.96,3.05-3.91,6.08-5.85,9.1-1.94,3.02-3.85,6.03-5.86,8.95-15.76,23.57-32,45-47.31,63.31l-3.17-2.58c14.7-18.64,30.64-40.08,46.28-63.52,2-2.9,3.9-5.9,5.83-8.89,1.93-3,3.88-6.01,5.83-9.04,1.94-3.03,3.8-6.14,5.72-9.23,1.89-3.11,3.84-6.19,5.71-9.34,3.93-6.64,7.81-13.37,11.63-20.16l9.7-17.7c.13-.25.27-.5.4-.75,1.37-2.6,2.72-5.21,4.06-7.82l1.79-3.49c1.43-2.83,2.86-5.66,4.26-8.49.35-.72.69-1.44,1.05-2.16l6.62-13.95c.59-1.29,1.17-2.58,1.76-3.87,1.53-3.33,3.05-6.65,4.56-9.96,1.48-3.32,2.85-6.67,4.27-9.99,1.41-3.32,2.81-6.62,4.2-9.91,1.38-3.29,2.62-6.62,3.91-9.89,10.33-26.25,18.6-51.69,24.79-74.62-1.32-.37-3.94-1.11-5.25-1.48-.3-.09.2-3.01,1.36-8.03.57-2.52,1.31-5.56,2.17-9.04.44-1.74.9-3.59,1.38-5.54.45-1.97.92-4.03,1.41-6.18.99-4.3,2.07-8.96,3.21-13.88,1.09-4.94,2.12-10.17,3.26-15.57.55-2.7,1.16-5.43,1.69-8.22.21-1.13.41-2.26.62-3.4-1.13,6.2-2.58,12.73-4,19.55-.41,1.98-.84,3.98-1.26,6-.48,2.01-.96,4.04-1.44,6.09-.98,4.09-1.98,8.25-2.98,12.45-.25,1.05-.5,2.1-.76,3.16-.27,1.05-.55,2.1-.83,3.15-.57,2.11-1.14,4.23-1.7,6.35-1.15,4.24-2.3,8.5-3.45,12.76-1.26,4.23-2.51,8.46-3.77,12.67-1.25,4.21-2.47,8.4-3.86,12.5-2.71,8.2-5.23,16.28-8.05,23.87-1.36,3.81-2.69,7.53-3.99,11.14-1.3,3.61-2.71,7.06-3.99,10.41-1.3,3.34-2.54,6.55-3.73,9.61-1.17,3.07-2.46,5.92-3.57,8.64-1.26-.52-3.77-1.56-5.03-2.08-.33-.14.6-2.91,2.35-7.71,1.67-4.83,4.21-11.67,7.28-19.87,5.85-16.49,13.43-38.58,19.82-61.06-1.28-.37.4-11.99.76-17.9.35-5.91-.63-6.12-7.31,16.04-6.37,22.28-13.71,44.25-21.9,65.88-2.11,5.39-4.16,10.8-6.32,16.17l-6.71,16c-.36.88-.74,1.75-1.12,2.63-.07-.12-.13-.23-.2-.35.2-.47.41-.95.61-1.42,2.03-5.02,4.03-9.97,6-14.82.49-1.22.98-2.43,1.46-3.63.45-1.22.91-2.43,1.35-3.64.9-2.41,1.79-4.81,2.67-7.18,3.62-9.45,6.58-18.75,9.59-27.64,1.47-4.46,2.73-8.89,4.06-13.2,1.28-4.33,2.65-8.53,3.72-12.73,9.28-33.39,14.55-61.79,17.76-84.58.71-5.71,1.37-11.07,1.99-16.06.33-2.5.49-4.92.71-7.25.19-2.33.38-4.57.56-6.72.32-4.3.68-8.23.82-11.83.13-3.59.23-6.83.27-9.71.29-11.5-.48-17.3-1.47-17.41-.21,2.85-.35,5.52-.63,8.03-.28,2.5-.55,4.85-.8,7.06-.53,4.43-1.06,8.32-1.59,11.84-1.18,7.04-2.43,12.61-3.61,18.19-.3,1.39-.6,2.78-.9,4.2-.34,1.41-.67,2.84-1.02,4.31-.69,2.95-1.39,6.07-2.11,9.55-1.03,5.43-2.39,11.68-3.88,19.46,5.61-31.22,9.1-62.44,10.58-89.42.19-3.63.47-7.17.57-10.64.1-3.46.19-6.84.29-10.12.08-3.28.17-6.46.25-9.53-.01-3.08-.02-6.05-.03-8.9-.06-5.71-.03-10.94-.21-15.64-.2-4.7-.4-8.85-.61-12.38-.21-3.54-.4-6.4-.64-8.69-.24-2.29-.48-3.87-.71-4.65-.45-1.55-.88.09-1.26,5.57-1.07,10.53-1.08,35.88-5.88,80.51l-.68,6.74-.86,6.71-1.72,13.44c-.65,4.47-1.38,8.92-2.06,13.39-.71,4.46-1.35,8.93-2.22,13.36l-2.46,13.32c-.38,2.23-.85,4.43-1.33,6.64l-1.41,6.63-1.41,6.62-.7,3.32c-.24,1.1-.53,2.19-.79,3.29l-3.18,13.17c-1,4.41-2.25,8.75-3.42,13.11-1.2,4.36-2.32,8.73-3.58,13.07l-3.9,12.98c-.65,2.17-1.27,4.34-1.96,6.49l-2.13,6.44-4.25,12.87-4.6,12.75-2.3,6.38-2.46,6.32-2.83,7.24c-61.69-89.13-135.66-174.54-218.03-250.55-21.7-20.09-43.91-39.61-66.6-58.4-22.7-18.79-45.82-36.92-69.26-54.34-46.89-34.84-95.06-66.82-143.6-95.71-40.41-24.16-83.42-48.66-128.26-72.28-44.85-23.61-91.51-46.38-139.08-67.12-23.78-10.39-47.78-20.26-71.9-29.49-6.03-2.31-12.08-4.57-18.12-6.79-3.03-1.1-6.05-2.2-9.07-3.29-2.99-1.07-5.98-2.13-8.96-3.19-5.97-2.11-11.92-4.22-17.86-6.32-5.96-2.06-11.9-4.12-17.83-6.17-47.45-16.26-94.38-30.88-139.81-42.03-27.48-6.78-64.03-16.78-99.07-23.54-15.46-3.02-30.58-5.42-44.31-7.03,22.22-29.05,46.45-56.52,71.62-82.15,9.32,2.3,18.69,4.23,28.08,5.8,14.1,2.29,28.22,3.73,42.29,4.57,14.08.87,28.09.92,42.02.49,13.92-.43,27.76-1.39,41.47-2.9,13.71-1.48,27.34-3.36,40.81-5.69,13.44-2.34,26.75-4.97,39.92-7.87,52.69-11.65,103-27.19,152.53-40.29l9.28-2.44,9.35-2.38c6.24-1.58,12.48-3.21,18.72-4.71,6.24-1.51,12.48-3.1,18.73-4.55l18.73-4.38c24.98-5.72,49.97-10.86,74.97-15.24,25-4.37,50.01-7.94,74.97-10.38,24.96-2.45,49.88-3.79,74.64-3.58,24.76.19,49.35,1.85,73.63,5.23,24.28,3.36,48.23,8.44,71.69,15.26,45.27,13.07,88.52,32.97,129.3,57.51.67.69,1.31,1.38,1.97,2.08l10.21,10.88,10.16,11.27c26.76,30.36,51.19,62.74,73,96.77,21.72,34.09,40.8,69.83,57.05,106.78l.3.68c18.24,41.92,32.8,85.4,43.52,129.79,5.29,22.32,9.6,44.86,12.95,67.54,3.32,22.68,5.8,45.49,7.04,68.38.11,1.41.22,2.78.33,4.12.07,1.35.14,2.66.22,3.94.14,2.56.29,4.99.42,7.3.26,4.62.59,8.76.7,12.46.3,7.41.61,13.05.91,17.29.49,8.75,1.04,11.66,1.63,11.66,1.2-.03,2.56-11.75,3.92-11.75.03-55.64-6-111.23-17.4-164.3-10.7-50.02-26.13-97.77-44.61-141.76l.1-.11-3.43-7.7c-.04-.08-.07-.16-.1-.24l-4.18-9.65-.16-.07c-.2-.44-.4-.88-.59-1.32-.81-1.82-1.62-3.63-2.43-5.43-.84-1.79-1.69-3.58-2.53-5.36-1.68-3.56-3.35-7.11-5.02-10.64-1.74-3.49-3.47-6.97-5.2-10.43-.86-1.73-1.72-3.46-2.58-5.18-.9-1.7-1.79-3.4-2.68-5.09-1.77-3.39-3.54-6.77-5.3-10.12-1.83-3.32-3.65-6.62-5.46-9.89-.9-1.65-1.8-3.28-2.7-4.91-.93-1.62-1.86-3.23-2.79-4.83-14.76-25.68-30.04-49.48-45.44-71.12-13.67-18.22-5.78-9.98,2.45-1.85,4.1,4.07,8.14,8.23,9.72,8.87,1.55.66.65-2.2-5.59-11.88-6.88-9.22-15.56-20.71-25.68-32.9-4.75-5.9-9.95-11.87-15.21-18l-10.8-12.1c-.92-1.02-1.83-2.04-2.75-3.06l-4.4-4.69-4.4-4.68c-1.46-1.57-2.9-3.13-4.44-4.67-3.03-3.09-6.05-6.17-9.03-9.21-.75-.76-1.49-1.52-2.23-2.27-.75-.74-1.5-1.47-2.25-2.2-1.5-1.46-2.99-2.91-4.46-4.34-1.48-1.44-2.94-2.86-4.39-4.27-.72-.71-1.44-1.41-2.16-2.11-.73-.68-1.46-1.36-2.18-2.04-5.82-5.37-11.29-10.6-16.59-15.2-2.63-2.34-5.15-4.58-7.56-6.72-2.41-2.12-4.78-4.07-6.97-5.95-.58-.58-1.11-1.13-1.63-1.66,3.06,1.15,5.29,1.77,5.55,1.21.52-1.12,1.05-2.27,1.01-3.65,2.23,1.31,4.43,2.58,6.3,3.59,2.1,1.18,3.79,2,4.67,2.1.88.1.94-.53-.22-2.25-.59-.85-1.47-2.01-2.74-3.43-1.28-1.42-2.93-3.15-4.99-5.24-2.06-2.08-4.56-4.5-7.44-7.21-2.93-2.66-6.27-5.58-9.93-8.76-1.85-1.57-3.73-3.26-5.77-4.9-2.04-1.66-4.15-3.37-6.32-5.13-2.19-1.76-4.44-3.57-6.75-5.43-2.36-1.79-4.78-3.64-7.25-5.52-19.81-15.08-44.1-31.55-69.31-46.51-25.2-14.99-51.33-28.34-73.92-38.87-11.28-5.32-21.72-9.82-30.61-13.74-8.97-3.75-16.35-7.05-21.77-9.33-4.1-1.62-7.87-3.1-11.3-4.45-3.46-1.29-6.59-2.45-9.4-3.5-5.62-2.1-9.96-3.77-13.18-4.9-6.39-2.34-8.07-3.16-5.89-2.74,1.09.21,3.14.74,6.05,1.53,1.45.41,3.13.86,4.99,1.42,1.85.58,3.9,1.23,6.14,1.94,8.97,2.79,20.84,6.82,34.64,12.02,3.44,1.33,7.01,2.7,10.7,4.12,3.69,1.4,7.42,3.03,11.3,4.61,1.93.8,3.89,1.61,5.87,2.44.99.41,1.98.82,2.98,1.24,1,.44,1.99.88,3,1.33,4.01,1.78,8.11,3.6,12.28,5.45,16.58,7.63,34.14,16.26,51.61,25.84,17.46,9.6,34.88,20.03,51.46,30.75,16.55,10.75,32.17,21.9,46.34,32.52-18.23-15.04,1.13-1.45,24.08,17.21,5.79,4.59,11.63,9.71,17.37,14.51,2.89,2.38,5.6,4.86,8.26,7.17,2.66,2.31,5.2,4.53,7.57,6.59,9.34,8.4,16.08,14.19,16.51,13.74,1.85-1.96,3.9-3.99-12.01-22.04-2.02-2.23-4.33-4.7-6.95-7.45-1.32-1.37-2.7-2.83-4.19-4.33-1.52-1.48-3.11-3.04-4.79-4.67-1.69-1.63-3.47-3.34-5.33-5.13-1.87-1.79-3.84-3.66-5.96-5.54-2.12-1.9-4.33-3.88-6.64-5.95-2.33-2.05-4.71-4.26-7.32-6.41-2.59-2.18-5.28-4.44-8.09-6.8-1.41-1.18-2.85-2.38-4.32-3.6-1.49-1.19-3.01-2.4-4.57-3.64-3.12-2.46-6.35-5.02-9.72-7.68-3.39-2.62-6.97-5.25-10.66-8.01-14.82-10.96-32.11-23.08-52.67-35.73-20.56-12.62-19.97-13.77-13.95-12.12,6,1.67,17.44,6.18,18.1,5.08-27.52-16.21-56.12-30.86-85.54-43.99-3.65-1.69-7.39-3.21-11.09-4.8-3.71-1.57-7.43-3.14-11.14-4.71-3.75-1.49-7.51-2.99-11.26-4.48l-5.63-2.23c-1.88-.74-3.79-1.42-5.68-2.13-3.79-1.4-7.59-2.8-11.38-4.21-3.79-1.42-7.65-2.66-11.47-4-3.84-1.3-7.65-2.67-11.52-3.9-3.86-1.23-7.73-2.45-11.6-3.68-30.97-9.74-62.66-17.5-94.77-23.54-16.04-3.09-32.23-5.48-48.46-7.67l-12.2-1.41c-4.08-.45-8.14-.99-12.23-1.31-8.17-.71-16.33-1.57-24.53-2.02-32.74-2.36-65.68-2.65-98.63-1.12-8.25.41-16.48.84-24.69,1.62-8.22.72-16.45,1.36-24.67,2.17-8.2,1-16.4,2-24.61,3-4.11.45-8.18,1.17-12.27,1.8l-12.26,1.95c-32.65,5.45-65.04,12.77-96.94,21.96-31.85,9.33-63.17,20.59-93.75,33.59-7.62,3.31-15.32,6.44-22.79,10.09l-11.28,5.31c-3.75,1.79-7.54,3.48-11.21,5.44l-22.17,11.4-21.77,12.16c-3.66,1.98-7.18,4.19-10.74,6.33l-10.66,6.45c-7.18,4.2-14.05,8.88-21.02,13.39l-10.43,6.83-10.19,7.16c-6.73,4.76-45.55,32.4-48.61,35.2l-38.69,34.89-9.07,8.51c-12.01,11.43-23.76,23.12-35.04,35.25l-4.26,4.52c-1.41,1.51-2.78,3.06-4.17,4.59l-8.31,9.22c-5.41,6.27-10.89,12.46-16.12,18.86-5.34,6.32-10.45,12.81-15.6,19.27-2.56,3.24-5.03,6.55-7.55,9.82l-3.76,4.92-3.66,5c-9.86,13.24-19.15,26.88-28.18,40.66-18,27.59-34.26,56.26-48.74,85.68-7.25,14.72-14.06,29.62-20.44,44.68-6.33,15.08-12.22,30.32-17.67,45.69-10.94,30.73-19.84,62.06-27.05,93.63l-.81,3.53v.13c-7.81,35.28-13.23,70.92-16.39,106.54-1.63,18.45-2.63,36.89-3.03,55.28-.19,9.2-.26,18.39-.12,27.56.24,9.17.48,18.33.72,27.47,1.42,30.22,4.3,60.75,8.83,91.39,1.23,7.64,2.46,15.31,3.7,22.99,1.49,7.65,2.98,15.31,4.48,22.99.7,3.85,1.6,7.66,2.48,11.49.88,3.82,1.76,7.65,2.64,11.48l1.32,5.75.66,2.88.75,2.86c1.01,3.81,2.02,7.62,3.03,11.44,8.12,30.54,17.93,60.94,29.63,90.87,11.77,29.9,24.55,59.77,40.57,88.12,99.36,175.76,189.16,244.91,260.07,294.72,54.46,38.36,113.6,70.02,175.23,94.1,61.63,24.11,125.76,40.57,190.04,49.25,32.14,4.35,64.32,6.77,96.25,7.37,31.93.7,63.65-.33,94.85-3.58,82.17-8.55,153-29.01,179.63-37.89,8.26-2.76,16.82-5.73,25.61-8.93.68-.21,1.36-.45,1.94-.68,16.91-6.27,34.68-13.27,52.85-21.19,18.4-8.12,37.21-17.12,55.96-26.96,18.78-9.8,37.39-20.65,55.58-32.07l6.82-4.29c2.27-1.43,4.48-2.95,6.72-4.41,2.24-1.48,4.47-2.96,6.7-4.44l3.34-2.21,3.29-2.28c4.38-3.06,8.74-6.1,13.09-9.13,4.27-3.13,8.53-6.25,12.77-9.35,16.81-12.59,32.79-25.56,47.67-38.53,14.83-13.04,28.5-26.13,40.93-38.73,24.67-25.39,44.02-49.1,56.95-67.61-30.28,37.3-63.78,72.06-100.02,103.61,52.99-48.88,100.91-103.06,141.61-162.47,13.07-19,25.29-38.59,36.71-58.64l9.74-17.62c2.95-5.49,5.86-10.99,8.7-16.54,1.04-2.07,2.08-4.14,3.1-6.22l5.77-11.93c12.52-26.48,23.56-53.66,32.97-81.39-1.32-.46-2.2-.77-1.1-6.72,1.01-5.98,4.36-17.48,10.35-40.61-6.55,22.94-14.85,48.49-25.08,74.91-1.29,3.3-2.51,6.65-3.88,9.97-1.37,3.31-2.75,6.64-4.14,9.99-1.41,3.34-2.76,6.72-4.22,10.07-1.5,3.34-2.99,6.69-4.5,10.05-1.07,2.4-2.15,4.8-3.23,7.21l-6.23,13.28c-3.19,6.58-6.46,13.15-9.83,19.67-.56,1.07-1.13,2.12-1.69,3.19l-9.65,17.85Z"/></g></svg>